<svg version="1" xmlns="http://www.w3.org/2000/svg" width="266.667" height="266.667" viewBox="0 0 200.000000 200.000000"><path d="M120.7 28.5c-5.4 1.9-11.1 5.9-14.3 10-2.5 3.4-2.7 4-2.2 11.9.5 6.9 1.1 9.3 3.8 14.2 1.8 3.2 3.6 6.4 4.1 6.9 2 2.6 7.9 15.6 7.9 17.5 0 2.4.6 2.4-7.1-.1-4.6-1.6-9.1-2.2-15.9-2.3-10.6-.1-18 2-33.5 9.4-9.3 4.4-21.9 8.9-25.5 9.1-1.4.1-4.6-.1-7.2-.6-4.7-.7-4.8-.7-4.8 1.9 0 3.5 4.2 13.6 7.3 17.8 1.4 1.8 4 6.9 5.8 11.3 1.8 4.4 4.5 9.6 6.1 11.7l2.8 3.6-6.2 2.1c-6.7 2.3-16 2.7-20.4 1.1-3.3-1.3-5.2.1-2.9 2 2.9 2.4 16.2 2.5 24.1.1 9.5-2.8 13.3-2.7 21.4.9 7.7 3.4 10.9 3.7 17 1.5 8.2-2.9 13.8-2.9 22.4-.1 10.2 3.4 13.8 3.3 20.6-.5 4-2.2 6.6-3 9.5-2.8 13 .8 13.9.6 18.5-3.4 5.3-4.5 12.6-15.4 14.1-21.1.7-2.3 1.1-8.5 1-13.8-.2-16.2-3.7-22.6-23.2-41.8-16.6-16.3-17.8-19.8-5.4-15.3 14.2 5.2 26.1 7.4 32 5.9 2.1-.5 2.6-1.2 2.3-3.3-.3-2.7-.7-3-7.7-5.9-4-1.7-8.1-4.9-8.1-6.3 0-.3 1.4-2.1 3-4 5.8-6.5 3.1-15.9-5.2-18.1-3.3-.9-5-.8-9 .5-3.8 1.2-5.7 1.3-8.8.5-6.5-1.8-12.3-1.9-16.3-.5zm15.6 3.7c1.7.7 2.9 2 3.3 3.7.2 1.4 1.4 4.4 2.4 6.6 2.6 5.1 2.5 5.7-.7 9.5-2.3 2.8-3.1 3.2-6.4 2.7-2.1-.3-5-1.4-6.5-2.6-4.9-3.9-7.2-2.1-3.4 2.6 1.1 1.4 2 3.9 2 5.5 0 3 4.7 8.6 21 24.9 5 4.9 7.8 8.9 11 15.5 4.2 8.5 4.4 9.3 4.3 17.4-.2 10.1-2.5 16.2-9.6 25.1-6.1 7.6-9.7 9.2-17.2 7.6-5.7-1.2-5.8-1.1-12.6 2.6-7.7 4.2-8.9 4.3-15 2.1-2.4-.8-7.2-2-10.7-2.5-5.4-.8-7.4-.6-13.3 1.2-8.2 2.5-12.3 2.2-22.7-1.6-9.8-3.5-15.2-7.5-17.9-13.3-1.9-3.9-2-4.8-.8-5 2.8-.6 1.5-4-3.1-8-2.7-2.5-5.9-6.7-8-10.9l-3.4-6.8 6.8-.6c8.2-.7 16.3-3.1 26.2-7.7 14.8-6.8 24.6-10.4 30-10.9 7.4-.7 19.9 1.9 26.8 5.7 3.1 1.7 6.1 3 6.8 3 2.2 0 2.8-2.2 1-3.5-.9-.7-2-3-2.3-5.1-.7-4.5-4.7-13.2-10.3-22.4-2.2-3.6-4.7-8.9-5.5-11.8-1.5-4.7-1.5-5.7-.1-10.5 2.1-7.2 5.7-10.4 15-13.1 4.4-1.4 8.4-1.2 12.9.6zm19.4 1.1c1.3 1.1 2.5 2.8 2.8 3.9.8 2.3-3.2 9.6-5.7 10.4-4.6 1.4.1 7.8 8.5 11.3 5.7 2.5 6.3 4.5 1 3.5-6.7-1.1-15.8-3.6-17-4.5-.9-.8-.7-2.1.8-5.2 2.5-5.6 2.5-10.3-.1-11.9-2.6-1.7-2.6-6.2 0-8.8 2.4-2.4 6.2-1.9 9.7 1.3z"/><path d="M129 38.9c-2.1 1.7-2.3 2.3-1.5 4.8 1.4 3.8 5.5 5.2 8.9 2.9 2.8-1.8 3.3-4.3 1.4-6.9-2.1-2.6-6-3-8.8-.8zM68 109.3c-4.5 1.4-13.5 7.2-16 10.4-5.7 7.3.4 14.4 15.2 17.8 15.4 3.5 21.9 3.7 34.5 1.4 16.9-3.1 21-5.5 23.9-14.1 1.8-5.7 1.4-11.1-1.2-13.9-3.8-4.2-5.8-.9-2.9 4.7 2.7 5.2 1.7 9.6-3.4 14-7.8 6.9-31.8 8.9-51 4.2-8.1-1.9-13.1-5.5-13.1-9.4 0-3.2 5.8-7.8 13.4-10.5 4.4-1.6 6.6-2.9 6.4-3.8-.4-1.9-1.6-2.1-5.8-.8zM164 143.8c0 .6 1.7 1.6 3.8 2.1 2 .5 5.6 1.4 7.8 2 5.5 1.5 9.6 4.8 9.2 7.4-.8 5.2-11.6 8.3-33.8 9.7-9.1.6-20.5 1.6-25.5 2.2-4.9.6-17.1 1.2-27 1.3-9.9 0-19.8.4-22 .8-2.2.4-11 .9-19.5 1.2-8.5.3-15.9 1-16.4 1.5-.6.6 4.8.8 15.5.4 9-.3 25.8-.7 37.4-.8 11.6-.2 23.7-.8 27-1.4 3.3-.6 10.7-1.4 16.5-1.7 16.3-.9 34-2.5 39.4-3.6 7.2-1.4 11.6-5.1 11.6-9.5 0-4.6-3.3-7.8-10.1-9.9-7.6-2.2-13.9-3-13.9-1.7z"/></svg>